# xmcd
#
# Track frame offsets:
#	150
#	19005
#	33497
#	49572
#	68547
#	79892
#	94167
#	106710
#	124230
#	141615
#	158495
#	177357
#	191797
#	207895
#	226900
#	238257
#	252600
#	265182
#	282777
#	300177
#
# Disc length: 4347 seconds
#
# Revision: 1
# Processed by: cddbd v1.5.1PL2 Copyright (c) Steve Scherf et al.
# Submitted via: audiograbber 1.83.01
#
DISCID=1110f914
DTITLE=Top Hits Monthly Country  - Thmc9812
DYEAR=1998
DGENRE=Karaoke
TTITLE0=Garth Brooks - It's Your Song (Vocal)
TTITLE1=Brooks And Dunn - Husbands And Wives (Vocal)
TTITLE2=Tim Mcgraw - For A Little While (Vocal)
TTITLE3=John Michael Montgomery - Hold On To Me (Vocal)
TTITLE4=George Strait - We Really Shouldn't Be Doing This (Vocal)
TTITLE5=Vince Gill - Kindly Keep It Country (Vocal)
TTITLE6=Clay Walker - You're Beginning To Get To Me (Vocal)
TTITLE7=Travistritt - If I Lost You (Vocal)
TTITLE8=Randy Travis - Spirit Of A Boy Wisdom Of A Man (Vocal)
TTITLE9=Alan Jackson - Right On The Money (Vocal)
TTITLE10=Garth Brooks - It's Your Song
TTITLE11=Brooks And Dunn - Husbands And Wives
TTITLE12=Tim Mcgraw - For A Little While
TTITLE13=John Michael Montgomery - Hold On To Me
TTITLE14=George Strait - We Really Shouldn't Be Doing This
TTITLE15=Vince Gill - Kindly Keep It Country
TTITLE16=Clay Walker - You're Beginning To Get To Me
TTITLE17=Travistritt - If I Lost You
TTITLE18=Randy Travis - Spirit Of A Boy Wisdom Of A Man
TTITLE19=Alan Jackson - Right On The Money
EXTD=
EXTT0=
EXTT1=
EXTT2=
EXTT3=
EXTT4=
EXTT5=
EXTT6=
EXTT7=
EXTT8=
EXTT9=
EXTT10=
EXTT11=
EXTT12=
EXTT13=
EXTT14=
EXTT15=
EXTT16=
EXTT17=
EXTT18=
EXTT19=
PLAYORDER=
